%TF.GenerationSoftware,KiCad,Pcbnew,6.0.0-rc1-unknown-fbdb2bd91f~144~ubuntu20.04.1*%
%TF.CreationDate,2021-12-08T11:49:30+07:00*%
%TF.ProjectId,diff-probe,64696666-2d70-4726-9f62-652e6b696361,rev?*%
%TF.SameCoordinates,Original*%
%TF.FileFunction,Legend,Bot*%
%TF.FilePolarity,Positive*%
%FSLAX46Y46*%
G04 Gerber Fmt 4.6, Leading zero omitted, Abs format (unit mm)*
G04 Created by KiCad (PCBNEW 6.0.0-rc1-unknown-fbdb2bd91f~144~ubuntu20.04.1) date 2021-12-08 11:49:30*
%MOMM*%
%LPD*%
G01*
G04 APERTURE LIST*
%ADD10C,0.127000*%
%ADD11C,0.200000*%
%ADD12C,0.350000*%
G04 APERTURE END LIST*
D10*
%TO.C,J4*%
X169001100Y-91503600D02*
X169001100Y-94003600D01*
X169001100Y-102003600D02*
X169001100Y-104753600D01*
X162251100Y-94003600D02*
X162251100Y-102003600D01*
X162251100Y-102003600D02*
X169001100Y-102003600D01*
X173501100Y-91503600D02*
X169001100Y-91503600D01*
X169001100Y-104753600D02*
X173501100Y-104753600D01*
X173501100Y-104753600D02*
X173501100Y-91503600D01*
X169001100Y-94003600D02*
X162251100Y-94003600D01*
D11*
%TO.C,R27*%
X135751100Y-101753600D02*
X135751100Y-100503600D01*
X138251100Y-101753600D02*
X135751100Y-101753600D01*
X138251100Y-100503600D02*
X138251100Y-101753600D01*
X135751100Y-100503600D02*
X138251100Y-100503600D01*
%TO.C,R37*%
X135751100Y-96503600D02*
X135751100Y-95253600D01*
X138251100Y-96503600D02*
X135751100Y-96503600D01*
X138251100Y-95253600D02*
X138251100Y-96503600D01*
X135751100Y-95253600D02*
X138251100Y-95253600D01*
%TO.C,R38*%
X146001100Y-99128600D02*
X146001100Y-97878600D01*
X146001100Y-97878600D02*
X148501100Y-97878600D01*
X148501100Y-97878600D02*
X148501100Y-99128600D01*
X148501100Y-99128600D02*
X146001100Y-99128600D01*
%TD*%
D12*
X135626100Y-99878600D03*
X172001100Y-93753600D03*
X170501100Y-103253600D03*
X172001100Y-102253600D03*
X145251100Y-101878600D03*
X170501100Y-93753600D03*
X172001100Y-103253600D03*
X131251100Y-97503600D03*
X170501100Y-92753600D03*
X150251100Y-101878600D03*
X172001100Y-92753600D03*
X154001100Y-94003600D03*
X170501100Y-102253600D03*
X131251100Y-102503600D03*
X153001100Y-97128600D03*
X144626100Y-102378600D03*
X151126100Y-101628600D03*
X142376100Y-97378600D03*
X146751100Y-93503600D03*
X142126100Y-93378600D03*
X141501100Y-98003600D03*
X146251100Y-102878600D03*
X148126100Y-102878600D03*
X166251100Y-96303600D03*
X167251100Y-100303600D03*
X138251100Y-101128600D03*
X145876100Y-97878600D03*
X148501100Y-99128600D03*
X135751100Y-94628600D03*
X138251100Y-95878600D03*
X157751100Y-98003600D03*
X155201200Y-95453700D03*
X160301000Y-95453700D03*
X160301000Y-100553500D03*
X155201200Y-100553500D03*
X171251100Y-98303600D03*
X168251100Y-98303600D03*
M02*
