%TF.GenerationSoftware,KiCad,Pcbnew,6.0.0-rc1-unknown-fbdb2bd91f~144~ubuntu20.04.1*%
%TF.CreationDate,2021-12-08T11:49:30+07:00*%
%TF.ProjectId,diff-probe,64696666-2d70-4726-9f62-652e6b696361,rev?*%
%TF.SameCoordinates,Original*%
%TF.FileFunction,Legend,Top*%
%TF.FilePolarity,Positive*%
%FSLAX46Y46*%
G04 Gerber Fmt 4.6, Leading zero omitted, Abs format (unit mm)*
G04 Created by KiCad (PCBNEW 6.0.0-rc1-unknown-fbdb2bd91f~144~ubuntu20.04.1) date 2021-12-08 11:49:30*
%MOMM*%
%LPD*%
G01*
G04 APERTURE LIST*
%ADD10C,0.127000*%
%ADD11C,0.101600*%
%ADD12C,0.200000*%
%ADD13C,0.152400*%
%ADD14C,0.050800*%
%ADD15C,0.350000*%
G04 APERTURE END LIST*
D10*
%TO.C,IC3*%
X135914692Y-102795571D02*
X135914692Y-101652571D01*
X137112121Y-102686714D02*
X137057692Y-102741142D01*
X136894407Y-102795571D01*
X136785550Y-102795571D01*
X136622264Y-102741142D01*
X136513407Y-102632285D01*
X136458978Y-102523428D01*
X136404550Y-102305714D01*
X136404550Y-102142428D01*
X136458978Y-101924714D01*
X136513407Y-101815857D01*
X136622264Y-101707000D01*
X136785550Y-101652571D01*
X136894407Y-101652571D01*
X137057692Y-101707000D01*
X137112121Y-101761428D01*
X137493121Y-101652571D02*
X138200692Y-101652571D01*
X137819692Y-102088000D01*
X137982978Y-102088000D01*
X138091835Y-102142428D01*
X138146264Y-102196857D01*
X138200692Y-102305714D01*
X138200692Y-102577857D01*
X138146264Y-102686714D01*
X138091835Y-102741142D01*
X137982978Y-102795571D01*
X137656407Y-102795571D01*
X137547550Y-102741142D01*
X137493121Y-102686714D01*
%TO.C,IC5*%
X135934692Y-97535571D02*
X135934692Y-96392571D01*
X137132121Y-97426714D02*
X137077692Y-97481142D01*
X136914407Y-97535571D01*
X136805550Y-97535571D01*
X136642264Y-97481142D01*
X136533407Y-97372285D01*
X136478978Y-97263428D01*
X136424550Y-97045714D01*
X136424550Y-96882428D01*
X136478978Y-96664714D01*
X136533407Y-96555857D01*
X136642264Y-96447000D01*
X136805550Y-96392571D01*
X136914407Y-96392571D01*
X137077692Y-96447000D01*
X137132121Y-96501428D01*
X138166264Y-96392571D02*
X137621978Y-96392571D01*
X137567550Y-96936857D01*
X137621978Y-96882428D01*
X137730835Y-96828000D01*
X138002978Y-96828000D01*
X138111835Y-96882428D01*
X138166264Y-96936857D01*
X138220692Y-97045714D01*
X138220692Y-97317857D01*
X138166264Y-97426714D01*
X138111835Y-97481142D01*
X138002978Y-97535571D01*
X137730835Y-97535571D01*
X137621978Y-97481142D01*
X137567550Y-97426714D01*
D11*
%TO.C,X2*%
X155444054Y-92334561D02*
X156222987Y-93502961D01*
X156222987Y-92334561D02*
X155444054Y-93502961D01*
X156612454Y-92445838D02*
X156668092Y-92390200D01*
X156779368Y-92334561D01*
X157057559Y-92334561D01*
X157168835Y-92390200D01*
X157224473Y-92445838D01*
X157280111Y-92557114D01*
X157280111Y-92668390D01*
X157224473Y-92835304D01*
X156556816Y-93502961D01*
X157280111Y-93502961D01*
D10*
%TO.C,IC4*%
X146174692Y-100625571D02*
X146174692Y-99482571D01*
X147372121Y-100516714D02*
X147317692Y-100571142D01*
X147154407Y-100625571D01*
X147045550Y-100625571D01*
X146882264Y-100571142D01*
X146773407Y-100462285D01*
X146718978Y-100353428D01*
X146664550Y-100135714D01*
X146664550Y-99972428D01*
X146718978Y-99754714D01*
X146773407Y-99645857D01*
X146882264Y-99537000D01*
X147045550Y-99482571D01*
X147154407Y-99482571D01*
X147317692Y-99537000D01*
X147372121Y-99591428D01*
X148351835Y-99863571D02*
X148351835Y-100625571D01*
X148079692Y-99428142D02*
X147807550Y-100244571D01*
X148515121Y-100244571D01*
D12*
%TO.C,R28*%
X130333883Y-95830000D02*
X129450000Y-94946117D01*
X128566116Y-97597767D02*
X130333883Y-95830000D01*
X129450000Y-94946117D02*
X127682233Y-96713884D01*
X127682233Y-96713884D02*
X128566116Y-97597767D01*
%TO.C,C19*%
X133126100Y-96253600D02*
X130626100Y-96253600D01*
X130626100Y-97503600D02*
X133126100Y-97503600D01*
X133126100Y-97503600D02*
X133126100Y-96253600D01*
X130626100Y-96253600D02*
X130626100Y-97503600D01*
%TO.C,C20*%
X130626100Y-97503600D02*
X130626100Y-98753600D01*
X130626100Y-98753600D02*
X133126100Y-98753600D01*
X133126100Y-97503600D02*
X130626100Y-97503600D01*
X133126100Y-98753600D02*
X133126100Y-97503600D01*
%TO.C,C24*%
X150251100Y-102503600D02*
X150251100Y-101253600D01*
X147751100Y-101253600D02*
X147751100Y-102503600D01*
X147751100Y-102503600D02*
X150251100Y-102503600D01*
X150251100Y-101253600D02*
X147751100Y-101253600D01*
%TO.C,R20*%
X129561942Y-101285825D02*
X130445825Y-100401942D01*
X130445825Y-100401942D02*
X128678058Y-98634175D01*
X127794175Y-99518058D02*
X129561942Y-101285825D01*
X128678058Y-98634175D02*
X127794175Y-99518058D01*
D13*
%TO.C,IC3*%
X135198100Y-102865600D02*
X138804100Y-102865600D01*
X138804100Y-98141600D02*
X135198100Y-98141600D01*
D14*
X136366100Y-98700200D02*
G75*
G03*
X136366100Y-98700200I-355600J0D01*
G01*
D12*
%TO.C,R26*%
X144626100Y-101753600D02*
X142126100Y-101753600D01*
X142126100Y-101753600D02*
X142126100Y-103003600D01*
X142126100Y-103003600D02*
X144626100Y-103003600D01*
X144626100Y-103003600D02*
X144626100Y-101753600D01*
%TO.C,R30*%
X151126100Y-98503600D02*
X151126100Y-101003600D01*
X152376100Y-98503600D02*
X151126100Y-98503600D01*
X151126100Y-101003600D02*
X152376100Y-101003600D01*
X152376100Y-101003600D02*
X152376100Y-98503600D01*
%TO.C,C22*%
X130626100Y-102503600D02*
X130626100Y-103753600D01*
X133126100Y-102503600D02*
X130626100Y-102503600D01*
X130626100Y-103753600D02*
X133126100Y-103753600D01*
X133126100Y-103753600D02*
X133126100Y-102503600D01*
%TO.C,C18*%
X153626100Y-97128600D02*
X151126100Y-97128600D01*
X153626100Y-98378600D02*
X153626100Y-97128600D01*
X151126100Y-98378600D02*
X153626100Y-98378600D01*
X151126100Y-97128600D02*
X151126100Y-98378600D01*
%TO.C,C17*%
X153626100Y-97128600D02*
X153626100Y-95878600D01*
X153626100Y-95878600D02*
X151126100Y-95878600D01*
X151126100Y-97128600D02*
X153626100Y-97128600D01*
X151126100Y-95878600D02*
X151126100Y-97128600D01*
%TO.C,C16*%
X140876100Y-100503600D02*
X142126100Y-100503600D01*
X142126100Y-100503600D02*
X142126100Y-98003600D01*
X142126100Y-98003600D02*
X140876100Y-98003600D01*
X140876100Y-98003600D02*
X140876100Y-100503600D01*
%TO.C,R22*%
X140876100Y-101753600D02*
X143376100Y-101753600D01*
X140876100Y-100503600D02*
X140876100Y-101753600D01*
X143376100Y-101753600D02*
X143376100Y-100503600D01*
X143376100Y-100503600D02*
X140876100Y-100503600D01*
%TO.C,C21*%
X133126100Y-102503600D02*
X133126100Y-101253600D01*
X130626100Y-102503600D02*
X133126100Y-102503600D01*
X130626100Y-101253600D02*
X130626100Y-102503600D01*
X133126100Y-101253600D02*
X130626100Y-101253600D01*
%TO.C,C13*%
X140876100Y-95253600D02*
X142126100Y-95253600D01*
X142126100Y-92753600D02*
X140876100Y-92753600D01*
X142126100Y-95253600D02*
X142126100Y-92753600D01*
X140876100Y-92753600D02*
X140876100Y-95253600D01*
D14*
%TO.C,IC5*%
X136366100Y-93450200D02*
G75*
G03*
X136366100Y-93450200I-355600J0D01*
G01*
D13*
X138804100Y-92891600D02*
X135198100Y-92891600D01*
X135198100Y-97615600D02*
X138804100Y-97615600D01*
D12*
%TO.C,C14*%
X142126100Y-92753600D02*
X142126100Y-95253600D01*
X142126100Y-95253600D02*
X143376100Y-95253600D01*
X143376100Y-92753600D02*
X142126100Y-92753600D01*
X143376100Y-95253600D02*
X143376100Y-92753600D01*
%TO.C,X2*%
X166051100Y-100903600D02*
X166051100Y-95103600D01*
X166051100Y-100903600D02*
X166351100Y-101403600D01*
X166351100Y-94603600D02*
X168451100Y-94603600D01*
X166351100Y-101403600D02*
X168451100Y-101403600D01*
X162051100Y-95103600D02*
X166051100Y-95103600D01*
X160951100Y-96903600D02*
X160951100Y-99103600D01*
X168751100Y-95103600D02*
X169351100Y-95103600D01*
X158851100Y-101203600D02*
X156651100Y-101203600D01*
X162051100Y-100903600D02*
X166051100Y-100903600D01*
X166051100Y-95103600D02*
X166351100Y-94603600D01*
X168451100Y-101403600D02*
X168751100Y-100903600D01*
X154551100Y-99103600D02*
X154551100Y-96903600D01*
X169351100Y-100903600D02*
X169351100Y-95103600D01*
X168751100Y-100903600D02*
X169351100Y-100903600D01*
X168451100Y-94603600D02*
X168751100Y-95103600D01*
X168751100Y-100903600D02*
X168751100Y-95103600D01*
X156651100Y-94803600D02*
X158851100Y-94803600D01*
X159451100Y-98003600D02*
G75*
G03*
X159451100Y-98003600I-1700000J0D01*
G01*
%TO.C,C54*%
X145501100Y-93053600D02*
X145001100Y-93053600D01*
X145501100Y-93953600D02*
X145001100Y-93953600D01*
%TO.C,C52*%
X152251100Y-94453600D02*
X152751100Y-94453600D01*
X152251100Y-93553600D02*
X152751100Y-93553600D01*
D13*
%TO.C,IC4*%
X145448100Y-100865600D02*
X149054100Y-100865600D01*
X149054100Y-96141600D02*
X145448100Y-96141600D01*
D14*
X146616100Y-96700200D02*
G75*
G03*
X146616100Y-96700200I-355600J0D01*
G01*
D12*
%TO.C,C15*%
X142126100Y-97253600D02*
X142126100Y-99753600D01*
X143376100Y-99753600D02*
X143376100Y-97253600D01*
X143376100Y-97253600D02*
X142126100Y-97253600D01*
X142126100Y-99753600D02*
X143376100Y-99753600D01*
%TO.C,C23*%
X145251100Y-102503600D02*
X147751100Y-102503600D01*
X147751100Y-101253600D02*
X145251100Y-101253600D01*
X147751100Y-102503600D02*
X147751100Y-101253600D01*
X145251100Y-101253600D02*
X145251100Y-102503600D01*
%TO.C,R32*%
X140876100Y-96503600D02*
X143376100Y-96503600D01*
X143376100Y-96503600D02*
X143376100Y-95253600D01*
X143376100Y-95253600D02*
X140876100Y-95253600D01*
X140876100Y-95253600D02*
X140876100Y-96503600D01*
%TD*%
D15*
X135626100Y-99878600D03*
X172001100Y-93753600D03*
X170501100Y-103253600D03*
X172001100Y-102253600D03*
X145251100Y-101878600D03*
X170501100Y-93753600D03*
X172001100Y-103253600D03*
X131251100Y-97503600D03*
X170501100Y-92753600D03*
X150251100Y-101878600D03*
X172001100Y-92753600D03*
X154001100Y-94003600D03*
X170501100Y-102253600D03*
X131251100Y-102503600D03*
X153001100Y-97128600D03*
X144626100Y-102378600D03*
X151126100Y-101628600D03*
X142376100Y-97378600D03*
X146751100Y-93503600D03*
X142126100Y-93378600D03*
X141501100Y-98003600D03*
X146251100Y-102878600D03*
X148126100Y-102878600D03*
X166251100Y-96303600D03*
X167251100Y-100303600D03*
X138251100Y-101128600D03*
X145876100Y-97878600D03*
X148501100Y-99128600D03*
X135751100Y-94628600D03*
X138251100Y-95878600D03*
X157751100Y-98003600D03*
X155201200Y-95453700D03*
X160301000Y-95453700D03*
X160301000Y-100553500D03*
X155201200Y-100553500D03*
X171251100Y-98303600D03*
X168251100Y-98303600D03*
M02*
