%TF.GenerationSoftware,KiCad,Pcbnew,6.0.0-rc1-unknown-fbdb2bd91f~144~ubuntu20.04.1*%
%TF.CreationDate,2021-12-08T11:49:30+07:00*%
%TF.ProjectId,diff-probe,64696666-2d70-4726-9f62-652e6b696361,rev?*%
%TF.SameCoordinates,Original*%
%TF.FileFunction,Soldermask,Top*%
%TF.FilePolarity,Negative*%
%FSLAX46Y46*%
G04 Gerber Fmt 4.6, Leading zero omitted, Abs format (unit mm)*
G04 Created by KiCad (PCBNEW 6.0.0-rc1-unknown-fbdb2bd91f~144~ubuntu20.04.1) date 2021-12-08 11:49:30*
%MOMM*%
%LPD*%
G01*
G04 APERTURE LIST*
G04 Aperture macros list*
%AMRoundRect*
0 Rectangle with rounded corners*
0 $1 Rounding radius*
0 $2 $3 $4 $5 $6 $7 $8 $9 X,Y pos of 4 corners*
0 Add a 4 corners polygon primitive as box body*
4,1,4,$2,$3,$4,$5,$6,$7,$8,$9,$2,$3,0*
0 Add four circle primitives for the rounded corners*
1,1,$1+$1,$2,$3*
1,1,$1+$1,$4,$5*
1,1,$1+$1,$6,$7*
1,1,$1+$1,$8,$9*
0 Add four rect primitives between the rounded corners*
20,1,$1+$1,$2,$3,$4,$5,0*
20,1,$1+$1,$4,$5,$6,$7,0*
20,1,$1+$1,$6,$7,$8,$9,0*
20,1,$1+$1,$8,$9,$2,$3,0*%
G04 Aperture macros list end*
%ADD10RoundRect,0.150800X0.000000X-0.424264X0.424264X0.000000X0.000000X0.424264X-0.424264X0.000000X0*%
%ADD11RoundRect,0.150800X0.000000X0.424264X-0.424264X0.000000X0.000000X-0.424264X0.424264X0.000000X0*%
%ADD12RoundRect,0.050800X-1.500000X-0.500000X1.500000X-0.500000X1.500000X0.500000X-1.500000X0.500000X0*%
%ADD13RoundRect,0.150800X-0.300000X-0.300000X0.300000X-0.300000X0.300000X0.300000X-0.300000X0.300000X0*%
%ADD14RoundRect,0.150800X0.300000X0.300000X-0.300000X0.300000X-0.300000X-0.300000X0.300000X-0.300000X0*%
%ADD15RoundRect,0.150800X0.424264X0.000000X0.000000X0.424264X-0.424264X0.000000X0.000000X-0.424264X0*%
%ADD16RoundRect,0.150800X-0.424264X0.000000X0.000000X-0.424264X0.424264X0.000000X0.000000X0.424264X0*%
%ADD17RoundRect,0.050800X-1.104900X0.304800X-1.104900X-0.304800X1.104900X-0.304800X1.104900X0.304800X0*%
%ADD18RoundRect,0.150800X-0.300000X0.300000X-0.300000X-0.300000X0.300000X-0.300000X0.300000X0.300000X0*%
%ADD19RoundRect,0.150800X0.300000X-0.300000X0.300000X0.300000X-0.300000X0.300000X-0.300000X-0.300000X0*%
%ADD20C,2.401600*%
%ADD21C,2.601600*%
%ADD22RoundRect,0.050800X0.500000X0.550000X-0.500000X0.550000X-0.500000X-0.550000X0.500000X-0.550000X0*%
%ADD23RoundRect,0.050800X-0.500000X-0.550000X0.500000X-0.550000X0.500000X0.550000X-0.500000X0.550000X0*%
%ADD24C,1.200000*%
G04 APERTURE END LIST*
D10*
%TO.C,R28*%
X128566116Y-96713884D03*
D11*
X129450000Y-95830000D03*
%TD*%
D12*
%TO.C,J3*%
X125501100Y-99273600D03*
X125501100Y-96733600D03*
%TD*%
D13*
%TO.C,C19*%
X131251100Y-96878600D03*
D14*
X132501100Y-96878600D03*
%TD*%
D13*
%TO.C,C20*%
X131251100Y-98128600D03*
D14*
X132501100Y-98128600D03*
%TD*%
%TO.C,C24*%
X149626100Y-101878600D03*
D13*
X148376100Y-101878600D03*
%TD*%
D15*
%TO.C,R20*%
X129561942Y-100401942D03*
D16*
X128678058Y-99518058D03*
%TD*%
D17*
%TO.C,IC3*%
X134384900Y-98598600D03*
X134384900Y-99868600D03*
X134384900Y-101138600D03*
X134384900Y-102408600D03*
X139617300Y-102408600D03*
X139617300Y-101138600D03*
X139617300Y-99868600D03*
X139617300Y-98598600D03*
%TD*%
D13*
%TO.C,R26*%
X142751100Y-102378600D03*
D14*
X144001100Y-102378600D03*
%TD*%
D18*
%TO.C,R30*%
X151751100Y-99128600D03*
D19*
X151751100Y-100378600D03*
%TD*%
D13*
%TO.C,C22*%
X131251100Y-103128600D03*
D14*
X132501100Y-103128600D03*
%TD*%
D13*
%TO.C,C18*%
X151751100Y-97753600D03*
D14*
X153001100Y-97753600D03*
%TD*%
D13*
%TO.C,C17*%
X151751100Y-96503600D03*
D14*
X153001100Y-96503600D03*
%TD*%
D19*
%TO.C,C16*%
X141501100Y-99878600D03*
D18*
X141501100Y-98628600D03*
%TD*%
D13*
%TO.C,R22*%
X141501100Y-101128600D03*
D14*
X142751100Y-101128600D03*
%TD*%
D13*
%TO.C,C21*%
X131251100Y-101878600D03*
D14*
X132501100Y-101878600D03*
%TD*%
D19*
%TO.C,C13*%
X141501100Y-94628600D03*
D18*
X141501100Y-93378600D03*
%TD*%
D17*
%TO.C,IC5*%
X139617300Y-93348600D03*
X139617300Y-94618600D03*
X139617300Y-95888600D03*
X139617300Y-97158600D03*
X134384900Y-97158600D03*
X134384900Y-95888600D03*
X134384900Y-94618600D03*
X134384900Y-93348600D03*
%TD*%
D19*
%TO.C,C14*%
X142751100Y-94628600D03*
D18*
X142751100Y-93378600D03*
%TD*%
D20*
%TO.C,X2*%
X157751100Y-98003600D03*
D21*
X155201200Y-95453700D03*
X160301000Y-95453700D03*
X160301000Y-100553500D03*
X155201200Y-100553500D03*
%TD*%
D22*
%TO.C,C54*%
X146101100Y-93503600D03*
X144401100Y-93503600D03*
%TD*%
D23*
%TO.C,C52*%
X151651100Y-94003600D03*
X153351100Y-94003600D03*
%TD*%
D17*
%TO.C,IC4*%
X144634900Y-96598600D03*
X144634900Y-97868600D03*
X144634900Y-99138600D03*
X144634900Y-100408600D03*
X149867300Y-100408600D03*
X149867300Y-99138600D03*
X149867300Y-97868600D03*
X149867300Y-96598600D03*
%TD*%
D19*
%TO.C,C15*%
X142751100Y-99128600D03*
D18*
X142751100Y-97878600D03*
%TD*%
D13*
%TO.C,C23*%
X145876100Y-101878600D03*
D14*
X147126100Y-101878600D03*
%TD*%
D13*
%TO.C,R32*%
X141501100Y-95878600D03*
D14*
X142751100Y-95878600D03*
%TD*%
D24*
%TO.C,J4*%
X171251100Y-98303600D03*
X168251100Y-98303600D03*
%TD*%
M02*
