%TF.GenerationSoftware,KiCad,Pcbnew,6.0.0-rc1-unknown-fbdb2bd91f~144~ubuntu20.04.1*%
%TF.CreationDate,2021-12-08T11:49:30+07:00*%
%TF.ProjectId,diff-probe,64696666-2d70-4726-9f62-652e6b696361,rev?*%
%TF.SameCoordinates,Original*%
%TF.FileFunction,Copper,L2,Bot*%
%TF.FilePolarity,Positive*%
%FSLAX46Y46*%
G04 Gerber Fmt 4.6, Leading zero omitted, Abs format (unit mm)*
G04 Created by KiCad (PCBNEW 6.0.0-rc1-unknown-fbdb2bd91f~144~ubuntu20.04.1) date 2021-12-08 11:49:30*
%MOMM*%
%LPD*%
G01*
G04 APERTURE LIST*
G04 Aperture macros list*
%AMRoundRect*
0 Rectangle with rounded corners*
0 $1 Rounding radius*
0 $2 $3 $4 $5 $6 $7 $8 $9 X,Y pos of 4 corners*
0 Add a 4 corners polygon primitive as box body*
4,1,4,$2,$3,$4,$5,$6,$7,$8,$9,$2,$3,0*
0 Add four circle primitives for the rounded corners*
1,1,$1+$1,$2,$3*
1,1,$1+$1,$4,$5*
1,1,$1+$1,$6,$7*
1,1,$1+$1,$8,$9*
0 Add four rect primitives between the rounded corners*
20,1,$1+$1,$2,$3,$4,$5,0*
20,1,$1+$1,$4,$5,$6,$7,0*
20,1,$1+$1,$6,$7,$8,$9,0*
20,1,$1+$1,$8,$9,$2,$3,0*%
G04 Aperture macros list end*
%TA.AperFunction,ComponentPad*%
%ADD10C,2.300000*%
%TD*%
%TA.AperFunction,ComponentPad*%
%ADD11C,2.500000*%
%TD*%
%TA.AperFunction,WasherPad*%
%ADD12C,1.200000*%
%TD*%
%TA.AperFunction,SMDPad,CuDef*%
%ADD13R,3.500000X1.200000*%
%TD*%
%TA.AperFunction,SMDPad,CuDef*%
%ADD14R,3.300000X1.900000*%
%TD*%
%TA.AperFunction,SMDPad,CuDef*%
%ADD15RoundRect,0.100000X-0.300000X-0.300000X0.300000X-0.300000X0.300000X0.300000X-0.300000X0.300000X0*%
%TD*%
%TA.AperFunction,SMDPad,CuDef*%
%ADD16RoundRect,0.100000X0.300000X0.300000X-0.300000X0.300000X-0.300000X-0.300000X0.300000X-0.300000X0*%
%TD*%
%TA.AperFunction,ViaPad*%
%ADD17C,0.800000*%
%TD*%
%TA.AperFunction,Conductor*%
%ADD18C,0.254000*%
%TD*%
%TA.AperFunction,Conductor*%
%ADD19C,0.300000*%
%TD*%
%ADD20C,0.350000*%
G04 APERTURE END LIST*
D10*
%TO.P,X2,1,1*%
%TO.N,Net-(X2-Pad1)*%
X157751100Y-98003600D03*
D11*
%TO.P,X2,2,2*%
%TO.N,GND*%
X155201200Y-95453700D03*
%TO.P,X2,3,2*%
X160301000Y-95453700D03*
%TO.P,X2,4,2*%
X160301000Y-100553500D03*
%TO.P,X2,5,2*%
X155201200Y-100553500D03*
%TD*%
D12*
%TO.P,J4,*%
%TO.N,*%
X171251100Y-98303600D03*
X168251100Y-98303600D03*
D13*
%TO.P,J4,1,1*%
%TO.N,V+*%
X164301100Y-96303600D03*
%TO.P,J4,2,2*%
%TO.N,GND*%
X164301100Y-98303600D03*
%TO.P,J4,3,3*%
%TO.N,V-*%
X164301100Y-100303600D03*
D14*
%TO.P,J4,P$4,P$1*%
%TO.N,GND*%
X171251100Y-102753600D03*
%TO.P,J4,P$5,P$1*%
X171251100Y-93253600D03*
%TD*%
D15*
%TO.P,R27,P$1,1*%
%TO.N,Net-(IC3-Pad2)*%
X136376100Y-101128600D03*
D16*
%TO.P,R27,P$2,2*%
%TO.N,Net-(IC3-Pad6)*%
X137626100Y-101128600D03*
%TD*%
D15*
%TO.P,R37,P$1,1*%
%TO.N,Net-(IC5-Pad2)*%
X136376100Y-95878600D03*
D16*
%TO.P,R37,P$2,2*%
%TO.N,Net-(IC5-Pad6)*%
X137626100Y-95878600D03*
%TD*%
D15*
%TO.P,R38,P$1,1*%
%TO.N,Net-(IC4-Pad2)*%
X146626100Y-98503600D03*
D16*
%TO.P,R38,P$2,2*%
%TO.N,Net-(IC4-Pad6)*%
X147876100Y-98503600D03*
%TD*%
D17*
%TO.N,Net-(IC3-Pad2)*%
X135626100Y-99878600D03*
%TO.N,GND*%
X172001100Y-93753600D03*
X170501100Y-103253600D03*
X172001100Y-102253600D03*
X145251100Y-101878600D03*
X170501100Y-93753600D03*
X172001100Y-103253600D03*
X131251100Y-97503600D03*
X170501100Y-92753600D03*
X150251100Y-101878600D03*
X172001100Y-92753600D03*
X154001100Y-94003600D03*
X170501100Y-102253600D03*
X131251100Y-102503600D03*
X153001100Y-97128600D03*
X144626100Y-102378600D03*
X151126100Y-101628600D03*
X142376100Y-97378600D03*
X146751100Y-93503600D03*
X142126100Y-93378600D03*
X141501100Y-98003600D03*
%TO.N,V+*%
X146251100Y-102878600D03*
X148126100Y-102878600D03*
X166251100Y-96303600D03*
%TO.N,V-*%
X167251100Y-100303600D03*
%TO.N,Net-(IC3-Pad6)*%
X138251100Y-101128600D03*
%TO.N,Net-(IC4-Pad2)*%
X145876100Y-97878600D03*
%TO.N,Net-(IC4-Pad6)*%
X148501100Y-99128600D03*
%TO.N,Net-(IC5-Pad2)*%
X135751100Y-94628600D03*
%TO.N,Net-(IC5-Pad6)*%
X138251100Y-95878600D03*
%TD*%
D18*
%TO.N,Net-(IC3-Pad2)*%
X136376100Y-99878600D02*
X135626100Y-99878600D01*
X136376100Y-101128600D02*
X136376100Y-99878600D01*
%TO.N,GND*%
X172001100Y-92753600D02*
X171251100Y-93253600D01*
X172001100Y-102253600D02*
X171251100Y-102753600D01*
X170501100Y-103253600D02*
X171251100Y-102753600D01*
X170501100Y-93753600D02*
X171251100Y-93253600D01*
X172001100Y-93753600D02*
X171251100Y-93253600D01*
X170501100Y-92753600D02*
X171251100Y-93253600D01*
X172001100Y-103253600D02*
X172001100Y-102253600D01*
X170501100Y-102253600D02*
X171251100Y-102753600D01*
D19*
%TO.N,V+*%
X146251100Y-102878600D02*
X148126100Y-102878600D01*
D18*
X164301100Y-96303600D02*
X166251100Y-96303600D01*
%TO.N,V-*%
X164301100Y-100303600D02*
X167251100Y-100303600D01*
%TO.N,Net-(IC3-Pad6)*%
X137626100Y-101128600D02*
X138251100Y-101128600D01*
%TO.N,Net-(IC4-Pad2)*%
X146001100Y-97878600D02*
X146626100Y-98503600D01*
X145876100Y-97878600D02*
X146001100Y-97878600D01*
%TO.N,Net-(IC4-Pad6)*%
X148501100Y-99128600D02*
X147876100Y-98503600D01*
%TO.N,Net-(IC5-Pad2)*%
X135751100Y-94628600D02*
X136376100Y-94628600D01*
X136376100Y-94628600D02*
X136376100Y-95878600D01*
%TO.N,Net-(IC5-Pad6)*%
X138251100Y-95878600D02*
X137626100Y-95878600D01*
%TD*%
%TA.AperFunction,Conductor*%
%TO.N,GND*%
G36*
X169170201Y-92223837D02*
G01*
X169199786Y-92275079D01*
X169201100Y-92290100D01*
X169201100Y-93038349D01*
X169205352Y-93050032D01*
X169211532Y-93053600D01*
X171364600Y-93053600D01*
X171420201Y-93073837D01*
X171449786Y-93125079D01*
X171451100Y-93140100D01*
X171451100Y-94588348D01*
X171455352Y-94600031D01*
X171461532Y-94603599D01*
X172839600Y-94603599D01*
X172895201Y-94623836D01*
X172924786Y-94675078D01*
X172926100Y-94690099D01*
X172926100Y-101317100D01*
X172905863Y-101372701D01*
X172854621Y-101402286D01*
X172839600Y-101403600D01*
X171466351Y-101403600D01*
X171454668Y-101407852D01*
X171451100Y-101414032D01*
X171451100Y-102867100D01*
X171430863Y-102922701D01*
X171379621Y-102952286D01*
X171364600Y-102953600D01*
X169216352Y-102953600D01*
X169204669Y-102957852D01*
X169201101Y-102964032D01*
X169201101Y-103717100D01*
X169180864Y-103772701D01*
X169129622Y-103802286D01*
X169114601Y-103803600D01*
X130932606Y-103803600D01*
X130887411Y-103790854D01*
X130862721Y-103775724D01*
X130851744Y-103767749D01*
X130761587Y-103690746D01*
X130761586Y-103690746D01*
X130749939Y-103680798D01*
X130746476Y-103672439D01*
X130736526Y-103668317D01*
X130727047Y-103658838D01*
X130725213Y-103656922D01*
X130724941Y-103656732D01*
X129946809Y-102878600D01*
X145667810Y-102878600D01*
X145687685Y-103029567D01*
X145745956Y-103170245D01*
X145749407Y-103174743D01*
X145749408Y-103174744D01*
X145789611Y-103227137D01*
X145838652Y-103291048D01*
X145959455Y-103383744D01*
X146100133Y-103442015D01*
X146105752Y-103442755D01*
X146105753Y-103442755D01*
X146245479Y-103461150D01*
X146251100Y-103461890D01*
X146256721Y-103461150D01*
X146396447Y-103442755D01*
X146396448Y-103442755D01*
X146402067Y-103442015D01*
X146542745Y-103383744D01*
X146663548Y-103291048D01*
X146702149Y-103240742D01*
X146752052Y-103208950D01*
X146770774Y-103206900D01*
X147606426Y-103206900D01*
X147662027Y-103227137D01*
X147675050Y-103240741D01*
X147713652Y-103291048D01*
X147834455Y-103383744D01*
X147975133Y-103442015D01*
X147980752Y-103442755D01*
X147980753Y-103442755D01*
X148120479Y-103461150D01*
X148126100Y-103461890D01*
X148131721Y-103461150D01*
X148271447Y-103442755D01*
X148271448Y-103442755D01*
X148277067Y-103442015D01*
X148417745Y-103383744D01*
X148538548Y-103291048D01*
X148587589Y-103227137D01*
X148627792Y-103174744D01*
X148627793Y-103174743D01*
X148631244Y-103170245D01*
X148689515Y-103029567D01*
X148709390Y-102878600D01*
X148689515Y-102727633D01*
X148631244Y-102586955D01*
X148603118Y-102550300D01*
X148593948Y-102538349D01*
X169201100Y-102538349D01*
X169205352Y-102550032D01*
X169211532Y-102553600D01*
X171035849Y-102553600D01*
X171047532Y-102549348D01*
X171051100Y-102543168D01*
X171051100Y-101418852D01*
X171046848Y-101407169D01*
X171040668Y-101403601D01*
X169573016Y-101403601D01*
X169566264Y-101404132D01*
X169482680Y-101417370D01*
X169469883Y-101421527D01*
X169369121Y-101472868D01*
X169358242Y-101480772D01*
X169278272Y-101560742D01*
X169270368Y-101571621D01*
X169219025Y-101672388D01*
X169214870Y-101685175D01*
X169201631Y-101768765D01*
X169201100Y-101775514D01*
X169201100Y-102538349D01*
X148593948Y-102538349D01*
X148542001Y-102470652D01*
X148538548Y-102466152D01*
X148417745Y-102373456D01*
X148277067Y-102315185D01*
X148271448Y-102314445D01*
X148271447Y-102314445D01*
X148131721Y-102296050D01*
X148126100Y-102295310D01*
X148120479Y-102296050D01*
X147980753Y-102314445D01*
X147980752Y-102314445D01*
X147975133Y-102315185D01*
X147834455Y-102373456D01*
X147713652Y-102466152D01*
X147710199Y-102470652D01*
X147675051Y-102516458D01*
X147625148Y-102548250D01*
X147606426Y-102550300D01*
X146770774Y-102550300D01*
X146715173Y-102530063D01*
X146702149Y-102516458D01*
X146667001Y-102470652D01*
X146663548Y-102466152D01*
X146542745Y-102373456D01*
X146402067Y-102315185D01*
X146396448Y-102314445D01*
X146396447Y-102314445D01*
X146256721Y-102296050D01*
X146251100Y-102295310D01*
X146245479Y-102296050D01*
X146105753Y-102314445D01*
X146105752Y-102314445D01*
X146100133Y-102315185D01*
X145959455Y-102373456D01*
X145838652Y-102466152D01*
X145835199Y-102470652D01*
X145774083Y-102550300D01*
X145745956Y-102586955D01*
X145687685Y-102727633D01*
X145667810Y-102878600D01*
X129946809Y-102878600D01*
X128922819Y-101854609D01*
X154188947Y-101854609D01*
X154190421Y-101860108D01*
X154225775Y-101890303D01*
X154231253Y-101894282D01*
X154446900Y-102026431D01*
X154452936Y-102029506D01*
X154686609Y-102126297D01*
X154693048Y-102128389D01*
X154938983Y-102187432D01*
X154945672Y-102188492D01*
X155197807Y-102208335D01*
X155204593Y-102208335D01*
X155456728Y-102188492D01*
X155463417Y-102187432D01*
X155709352Y-102128389D01*
X155715791Y-102126297D01*
X155949464Y-102029506D01*
X155955500Y-102026431D01*
X156171147Y-101894282D01*
X156176625Y-101890303D01*
X156207385Y-101864031D01*
X156212716Y-101854609D01*
X159288747Y-101854609D01*
X159290221Y-101860108D01*
X159325575Y-101890303D01*
X159331053Y-101894282D01*
X159546700Y-102026431D01*
X159552736Y-102029506D01*
X159786409Y-102126297D01*
X159792848Y-102128389D01*
X160038783Y-102187432D01*
X160045472Y-102188492D01*
X160297607Y-102208335D01*
X160304393Y-102208335D01*
X160556528Y-102188492D01*
X160563217Y-102187432D01*
X160809152Y-102128389D01*
X160815591Y-102126297D01*
X161049264Y-102029506D01*
X161055300Y-102026431D01*
X161270947Y-101894282D01*
X161276425Y-101890303D01*
X161307185Y-101864031D01*
X161313308Y-101853209D01*
X161312271Y-101847614D01*
X160311785Y-100847128D01*
X160300517Y-100841873D01*
X160293622Y-100843721D01*
X159294002Y-101843341D01*
X159288747Y-101854609D01*
X156212716Y-101854609D01*
X156213508Y-101853209D01*
X156212471Y-101847614D01*
X155211985Y-100847128D01*
X155200717Y-100841873D01*
X155193822Y-100843721D01*
X154194202Y-101843341D01*
X154188947Y-101854609D01*
X128922819Y-101854609D01*
X127970551Y-100902341D01*
X127945234Y-100842941D01*
X127925554Y-99878600D01*
X135042810Y-99878600D01*
X135062685Y-100029567D01*
X135120956Y-100170245D01*
X135213652Y-100291048D01*
X135334455Y-100383744D01*
X135475133Y-100442015D01*
X135480752Y-100442755D01*
X135480753Y-100442755D01*
X135620479Y-100461150D01*
X135626100Y-100461890D01*
X135631721Y-100461150D01*
X135771447Y-100442755D01*
X135771448Y-100442755D01*
X135777067Y-100442015D01*
X135917745Y-100383744D01*
X135931641Y-100373081D01*
X135988071Y-100355287D01*
X136042737Y-100377929D01*
X136070060Y-100430413D01*
X136070800Y-100441705D01*
X136070800Y-100471681D01*
X136050563Y-100527282D01*
X136010421Y-100553038D01*
X136010487Y-100553187D01*
X135975288Y-100568822D01*
X135923040Y-100592029D01*
X135923038Y-100592031D01*
X135915738Y-100595273D01*
X135842493Y-100668646D01*
X135800573Y-100763468D01*
X135797800Y-100787251D01*
X135797801Y-101469948D01*
X135800687Y-101494213D01*
X135803321Y-101500144D01*
X135803322Y-101500146D01*
X135839529Y-101581660D01*
X135839530Y-101581661D01*
X135842773Y-101588962D01*
X135848428Y-101594607D01*
X135910201Y-101656272D01*
X135916146Y-101662207D01*
X136010968Y-101704127D01*
X136034751Y-101706900D01*
X136372058Y-101706900D01*
X136717448Y-101706899D01*
X136719983Y-101706597D01*
X136719991Y-101706597D01*
X136727870Y-101705659D01*
X136741713Y-101704013D01*
X136747644Y-101701379D01*
X136747646Y-101701378D01*
X136829160Y-101665171D01*
X136829162Y-101665169D01*
X136836462Y-101661927D01*
X136909707Y-101588554D01*
X136922006Y-101560734D01*
X136962996Y-101518062D01*
X137021825Y-101511723D01*
X137070966Y-101544680D01*
X137080172Y-101560593D01*
X137092773Y-101588962D01*
X137098428Y-101594607D01*
X137160201Y-101656272D01*
X137166146Y-101662207D01*
X137260968Y-101704127D01*
X137284751Y-101706900D01*
X137622058Y-101706900D01*
X137967448Y-101706899D01*
X137969983Y-101706597D01*
X137969991Y-101706597D01*
X137977870Y-101705659D01*
X137991713Y-101704013D01*
X137997644Y-101701379D01*
X137997646Y-101701378D01*
X138024085Y-101689634D01*
X138083114Y-101685558D01*
X138092287Y-101688765D01*
X138100133Y-101692015D01*
X138105752Y-101692755D01*
X138105753Y-101692755D01*
X138245479Y-101711150D01*
X138251100Y-101711890D01*
X138256721Y-101711150D01*
X138396447Y-101692755D01*
X138396448Y-101692755D01*
X138402067Y-101692015D01*
X138542745Y-101633744D01*
X138601638Y-101588554D01*
X138659048Y-101544501D01*
X138663548Y-101541048D01*
X138756244Y-101420245D01*
X138814515Y-101279567D01*
X138834390Y-101128600D01*
X138814515Y-100977633D01*
X138756244Y-100836955D01*
X138739948Y-100815717D01*
X138667001Y-100720652D01*
X138663548Y-100716152D01*
X138611156Y-100675950D01*
X138547244Y-100626908D01*
X138547243Y-100626907D01*
X138542745Y-100623456D01*
X138402067Y-100565185D01*
X138396448Y-100564445D01*
X138396447Y-100564445D01*
X138339083Y-100556893D01*
X153546365Y-100556893D01*
X153566208Y-100809028D01*
X153567268Y-100815717D01*
X153626311Y-101061652D01*
X153628403Y-101068091D01*
X153725194Y-101301764D01*
X153728269Y-101307800D01*
X153860418Y-101523447D01*
X153864397Y-101528925D01*
X153890669Y-101559685D01*
X153901491Y-101565808D01*
X153907086Y-101564771D01*
X154907572Y-100564285D01*
X154912376Y-100553983D01*
X155489573Y-100553983D01*
X155491421Y-100560878D01*
X156491041Y-101560498D01*
X156502309Y-101565753D01*
X156507808Y-101564279D01*
X156538003Y-101528925D01*
X156541982Y-101523447D01*
X156674131Y-101307800D01*
X156677206Y-101301764D01*
X156773997Y-101068091D01*
X156776089Y-101061652D01*
X156835132Y-100815717D01*
X156836192Y-100809028D01*
X156856035Y-100556893D01*
X158646165Y-100556893D01*
X158666008Y-100809028D01*
X158667068Y-100815717D01*
X158726111Y-101061652D01*
X158728203Y-101068091D01*
X158824994Y-101301764D01*
X158828069Y-101307800D01*
X158960218Y-101523447D01*
X158964197Y-101528925D01*
X158990469Y-101559685D01*
X159001291Y-101565808D01*
X159006886Y-101564771D01*
X160007372Y-100564285D01*
X160012176Y-100553983D01*
X160589373Y-100553983D01*
X160591221Y-100560878D01*
X161590841Y-101560498D01*
X161602109Y-101565753D01*
X161607608Y-101564279D01*
X161637803Y-101528925D01*
X161641782Y-101523447D01*
X161773931Y-101307800D01*
X161777006Y-101301764D01*
X161873797Y-101068091D01*
X161875889Y-101061652D01*
X161934932Y-100815717D01*
X161935992Y-100809028D01*
X161955835Y-100556893D01*
X161955835Y-100550107D01*
X161935992Y-100297972D01*
X161934932Y-100291283D01*
X161875889Y-100045348D01*
X161873797Y-100038909D01*
X161777006Y-99805236D01*
X161773931Y-99799200D01*
X161704586Y-99686039D01*
X162372800Y-99686039D01*
X162372801Y-100921160D01*
X162383145Y-100973169D01*
X162422553Y-101032147D01*
X162481531Y-101071555D01*
X162533539Y-101081900D01*
X164300683Y-101081900D01*
X166068660Y-101081899D01*
X166120669Y-101071555D01*
X166179647Y-101032147D01*
X166219055Y-100973169D01*
X166229400Y-100921161D01*
X166229400Y-100695400D01*
X166249637Y-100639799D01*
X166300879Y-100610214D01*
X166315900Y-100608900D01*
X166713777Y-100608900D01*
X166769378Y-100629137D01*
X166782402Y-100642742D01*
X166838652Y-100716048D01*
X166843152Y-100719501D01*
X166906580Y-100768171D01*
X166959455Y-100808744D01*
X167100133Y-100867015D01*
X167105752Y-100867755D01*
X167105753Y-100867755D01*
X167245479Y-100886150D01*
X167251100Y-100886890D01*
X167256721Y-100886150D01*
X167396447Y-100867755D01*
X167396448Y-100867755D01*
X167402067Y-100867015D01*
X167542745Y-100808744D01*
X167595621Y-100768171D01*
X167659048Y-100719501D01*
X167663548Y-100716048D01*
X167694315Y-100675952D01*
X167752792Y-100599744D01*
X167752793Y-100599743D01*
X167756244Y-100595245D01*
X167814515Y-100454567D01*
X167816168Y-100442015D01*
X167833650Y-100309221D01*
X167834390Y-100303600D01*
X167814515Y-100152633D01*
X167756244Y-100011955D01*
X167689202Y-99924584D01*
X167667001Y-99895652D01*
X167663548Y-99891152D01*
X167542745Y-99798456D01*
X167402067Y-99740185D01*
X167396448Y-99739445D01*
X167396447Y-99739445D01*
X167256721Y-99721050D01*
X167251100Y-99720310D01*
X167245479Y-99721050D01*
X167105753Y-99739445D01*
X167105752Y-99739445D01*
X167100133Y-99740185D01*
X166959455Y-99798456D01*
X166838652Y-99891152D01*
X166835199Y-99895652D01*
X166782402Y-99964458D01*
X166732499Y-99996250D01*
X166713777Y-99998300D01*
X166315899Y-99998300D01*
X166260298Y-99978063D01*
X166230713Y-99926821D01*
X166229399Y-99911800D01*
X166229399Y-99686040D01*
X166219055Y-99634031D01*
X166179647Y-99575053D01*
X166120669Y-99535645D01*
X166068661Y-99525300D01*
X164301517Y-99525300D01*
X162533540Y-99525301D01*
X162481531Y-99535645D01*
X162422553Y-99575053D01*
X162383145Y-99634031D01*
X162372800Y-99686039D01*
X161704586Y-99686039D01*
X161641782Y-99583553D01*
X161637803Y-99578075D01*
X161611531Y-99547315D01*
X161600709Y-99541192D01*
X161595114Y-99542229D01*
X160594628Y-100542715D01*
X160589373Y-100553983D01*
X160012176Y-100553983D01*
X160012627Y-100553017D01*
X160010779Y-100546122D01*
X159011159Y-99546502D01*
X158999891Y-99541247D01*
X158994392Y-99542721D01*
X158964197Y-99578075D01*
X158960218Y-99583553D01*
X158828069Y-99799200D01*
X158824994Y-99805236D01*
X158728203Y-100038909D01*
X158726111Y-100045348D01*
X158667068Y-100291283D01*
X158666008Y-100297972D01*
X158646165Y-100550107D01*
X158646165Y-100556893D01*
X156856035Y-100556893D01*
X156856035Y-100550107D01*
X156836192Y-100297972D01*
X156835132Y-100291283D01*
X156776089Y-100045348D01*
X156773997Y-100038909D01*
X156677206Y-99805236D01*
X156674131Y-99799200D01*
X156541982Y-99583553D01*
X156538003Y-99578075D01*
X156511731Y-99547315D01*
X156500909Y-99541192D01*
X156495314Y-99542229D01*
X155494828Y-100542715D01*
X155489573Y-100553983D01*
X154912376Y-100553983D01*
X154912827Y-100553017D01*
X154910979Y-100546122D01*
X153911359Y-99546502D01*
X153900091Y-99541247D01*
X153894592Y-99542721D01*
X153864397Y-99578075D01*
X153860418Y-99583553D01*
X153728269Y-99799200D01*
X153725194Y-99805236D01*
X153628403Y-100038909D01*
X153626311Y-100045348D01*
X153567268Y-100291283D01*
X153566208Y-100297972D01*
X153546365Y-100550107D01*
X153546365Y-100556893D01*
X138339083Y-100556893D01*
X138256721Y-100546050D01*
X138251100Y-100545310D01*
X138245479Y-100546050D01*
X138105753Y-100564445D01*
X138105752Y-100564445D01*
X138100133Y-100565185D01*
X138092263Y-100568445D01*
X138090546Y-100568520D01*
X138089419Y-100568822D01*
X138089352Y-100568572D01*
X138033151Y-100571025D01*
X138024186Y-100567642D01*
X138023535Y-100567354D01*
X137991232Y-100553073D01*
X137984772Y-100552320D01*
X137984769Y-100552319D01*
X137969936Y-100550590D01*
X137967449Y-100550300D01*
X137630142Y-100550300D01*
X137284752Y-100550301D01*
X137282217Y-100550603D01*
X137282209Y-100550603D01*
X137274330Y-100551541D01*
X137260487Y-100553187D01*
X137254556Y-100555821D01*
X137254554Y-100555822D01*
X137173040Y-100592029D01*
X137173038Y-100592031D01*
X137165738Y-100595273D01*
X137092493Y-100668646D01*
X137089264Y-100675950D01*
X137089263Y-100675952D01*
X137080194Y-100696466D01*
X137039204Y-100739138D01*
X136980375Y-100745477D01*
X136931234Y-100712520D01*
X136922028Y-100696607D01*
X136912670Y-100675539D01*
X136909427Y-100668238D01*
X136849985Y-100608900D01*
X136841707Y-100600636D01*
X136836054Y-100594993D01*
X136743291Y-100553983D01*
X136741232Y-100553073D01*
X136741465Y-100552546D01*
X136696826Y-100520997D01*
X136681400Y-100471694D01*
X136681400Y-99934322D01*
X136682781Y-99924584D01*
X136682205Y-99924527D01*
X136682984Y-99916580D01*
X136685206Y-99908908D01*
X136681723Y-99868694D01*
X136681400Y-99861230D01*
X136681400Y-99850207D01*
X136679783Y-99841522D01*
X136678646Y-99833166D01*
X136676081Y-99803555D01*
X136675392Y-99795599D01*
X136671886Y-99788426D01*
X136669945Y-99781427D01*
X136667327Y-99774642D01*
X136665864Y-99766789D01*
X136646077Y-99734688D01*
X136642001Y-99727289D01*
X136638589Y-99720310D01*
X136625445Y-99693420D01*
X136619590Y-99687989D01*
X136615255Y-99682152D01*
X136610375Y-99676770D01*
X136606185Y-99669972D01*
X136576177Y-99647153D01*
X136569708Y-99641716D01*
X136547917Y-99621502D01*
X136547916Y-99621501D01*
X136542063Y-99616072D01*
X136534645Y-99613112D01*
X136528506Y-99609232D01*
X136522013Y-99605966D01*
X136515653Y-99601130D01*
X136479438Y-99590642D01*
X136471448Y-99587899D01*
X136469082Y-99586955D01*
X136436427Y-99573927D01*
X136430032Y-99573300D01*
X136427947Y-99573300D01*
X136422045Y-99572316D01*
X136422027Y-99572495D01*
X136414080Y-99571716D01*
X136406408Y-99569494D01*
X136398451Y-99570183D01*
X136398450Y-99570183D01*
X136366194Y-99572977D01*
X136358730Y-99573300D01*
X136163423Y-99573300D01*
X136107822Y-99553063D01*
X136094798Y-99539458D01*
X136042001Y-99470652D01*
X136038548Y-99466152D01*
X136034048Y-99462699D01*
X135922244Y-99376908D01*
X135922243Y-99376907D01*
X135917745Y-99373456D01*
X135777067Y-99315185D01*
X135771448Y-99314445D01*
X135771447Y-99314445D01*
X135631721Y-99296050D01*
X135626100Y-99295310D01*
X135620479Y-99296050D01*
X135480753Y-99314445D01*
X135480752Y-99314445D01*
X135475133Y-99315185D01*
X135334455Y-99373456D01*
X135329957Y-99376907D01*
X135329956Y-99376908D01*
X135218152Y-99462699D01*
X135213652Y-99466152D01*
X135210199Y-99470652D01*
X135132052Y-99572495D01*
X135120956Y-99586955D01*
X135062685Y-99727633D01*
X135061945Y-99733252D01*
X135061945Y-99733253D01*
X135060747Y-99742354D01*
X135042810Y-99878600D01*
X127925554Y-99878600D01*
X127884738Y-97878600D01*
X145292810Y-97878600D01*
X145312685Y-98029567D01*
X145370956Y-98170245D01*
X145463652Y-98291048D01*
X145584455Y-98383744D01*
X145725133Y-98442015D01*
X145730752Y-98442755D01*
X145730753Y-98442755D01*
X145870479Y-98461150D01*
X145876100Y-98461890D01*
X145881721Y-98461150D01*
X145950010Y-98452160D01*
X146007777Y-98464967D01*
X146043797Y-98511909D01*
X146047800Y-98537920D01*
X146047801Y-98712699D01*
X146047801Y-98844948D01*
X146050687Y-98869213D01*
X146053321Y-98875144D01*
X146053322Y-98875146D01*
X146089529Y-98956660D01*
X146089530Y-98956661D01*
X146092773Y-98963962D01*
X146098428Y-98969607D01*
X146160201Y-99031272D01*
X146166146Y-99037207D01*
X146260968Y-99079127D01*
X146267426Y-99079880D01*
X146274507Y-99080706D01*
X146284751Y-99081900D01*
X146622058Y-99081900D01*
X146967448Y-99081899D01*
X146969983Y-99081597D01*
X146969991Y-99081597D01*
X146978630Y-99080569D01*
X146991713Y-99079013D01*
X146997644Y-99076379D01*
X146997646Y-99076378D01*
X147079160Y-99040171D01*
X147079162Y-99040169D01*
X147086462Y-99036927D01*
X147145653Y-98977633D01*
X147154064Y-98969207D01*
X147159707Y-98963554D01*
X147172006Y-98935734D01*
X147212996Y-98893062D01*
X147271825Y-98886723D01*
X147320966Y-98919680D01*
X147330172Y-98935593D01*
X147342773Y-98963962D01*
X147348428Y-98969607D01*
X147410201Y-99031272D01*
X147416146Y-99037207D01*
X147510968Y-99079127D01*
X147517426Y-99079880D01*
X147524507Y-99080706D01*
X147534751Y-99081900D01*
X147545501Y-99081900D01*
X147835804Y-99081899D01*
X147891404Y-99102136D01*
X147921563Y-99157108D01*
X147935591Y-99263659D01*
X147937685Y-99279567D01*
X147995956Y-99420245D01*
X148088652Y-99541048D01*
X148093152Y-99544501D01*
X148200596Y-99626946D01*
X148209455Y-99633744D01*
X148350133Y-99692015D01*
X148355752Y-99692755D01*
X148355753Y-99692755D01*
X148495479Y-99711150D01*
X148501100Y-99711890D01*
X148506721Y-99711150D01*
X148646447Y-99692755D01*
X148646448Y-99692755D01*
X148652067Y-99692015D01*
X148792745Y-99633744D01*
X148801605Y-99626946D01*
X148909048Y-99544501D01*
X148913548Y-99541048D01*
X149006244Y-99420245D01*
X149064515Y-99279567D01*
X149067909Y-99253791D01*
X154188892Y-99253791D01*
X154189929Y-99259386D01*
X155190415Y-100259872D01*
X155201683Y-100265127D01*
X155208578Y-100263279D01*
X156208198Y-99263659D01*
X156213453Y-99252391D01*
X156211979Y-99246892D01*
X156176625Y-99216697D01*
X156171147Y-99212718D01*
X155955500Y-99080569D01*
X155949464Y-99077494D01*
X155715791Y-98980703D01*
X155709352Y-98978611D01*
X155463417Y-98919568D01*
X155456728Y-98918508D01*
X155204593Y-98898665D01*
X155197807Y-98898665D01*
X154945672Y-98918508D01*
X154938983Y-98919568D01*
X154693048Y-98978611D01*
X154686609Y-98980703D01*
X154452936Y-99077494D01*
X154446900Y-99080569D01*
X154231253Y-99212718D01*
X154225775Y-99216697D01*
X154195015Y-99242969D01*
X154188892Y-99253791D01*
X149067909Y-99253791D01*
X149083650Y-99134221D01*
X149084390Y-99128600D01*
X149067815Y-99002696D01*
X149065255Y-98983253D01*
X149065255Y-98983252D01*
X149064515Y-98977633D01*
X149006244Y-98836955D01*
X148913548Y-98716152D01*
X148842469Y-98661611D01*
X148797244Y-98626908D01*
X148797243Y-98626907D01*
X148792745Y-98623456D01*
X148652067Y-98565185D01*
X148646450Y-98564445D01*
X148646448Y-98564445D01*
X148529609Y-98549063D01*
X148477125Y-98521741D01*
X148454400Y-98463303D01*
X148454399Y-98164816D01*
X148454399Y-98162252D01*
X148451513Y-98137987D01*
X148448000Y-98130078D01*
X148412671Y-98050540D01*
X148412669Y-98050538D01*
X148409427Y-98043238D01*
X148369720Y-98003600D01*
X156417726Y-98003600D01*
X156418055Y-98007360D01*
X156432306Y-98170245D01*
X156437983Y-98235138D01*
X156498138Y-98459641D01*
X156499732Y-98463060D01*
X156499733Y-98463062D01*
X156518636Y-98503600D01*
X156596364Y-98670287D01*
X156598526Y-98673375D01*
X156598528Y-98673378D01*
X156727509Y-98857582D01*
X156727512Y-98857586D01*
X156729676Y-98860676D01*
X156894024Y-99025024D01*
X156897114Y-99027188D01*
X156897118Y-99027191D01*
X157067449Y-99146458D01*
X157084413Y-99158336D01*
X157087830Y-99159929D01*
X157087831Y-99159930D01*
X157291638Y-99254967D01*
X157291640Y-99254968D01*
X157295059Y-99256562D01*
X157298704Y-99257539D01*
X157298705Y-99257539D01*
X157359941Y-99273947D01*
X157519562Y-99316717D01*
X157523318Y-99317046D01*
X157523320Y-99317046D01*
X157747340Y-99336645D01*
X157751100Y-99336974D01*
X157754860Y-99336645D01*
X157978880Y-99317046D01*
X157978882Y-99317046D01*
X157982638Y-99316717D01*
X158142259Y-99273947D01*
X158203495Y-99257539D01*
X158203496Y-99257539D01*
X158207141Y-99256562D01*
X158210560Y-99254968D01*
X158210562Y-99254967D01*
X158213084Y-99253791D01*
X159288692Y-99253791D01*
X159289729Y-99259386D01*
X160290215Y-100259872D01*
X160301483Y-100265127D01*
X160308378Y-100263279D01*
X161307998Y-99263659D01*
X161313253Y-99252391D01*
X161311779Y-99246892D01*
X161276425Y-99216697D01*
X161270947Y-99212718D01*
X161055300Y-99080569D01*
X161049264Y-99077494D01*
X160815591Y-98980703D01*
X160809152Y-98978611D01*
X160613684Y-98931684D01*
X162151101Y-98931684D01*
X162151632Y-98938436D01*
X162164870Y-99022020D01*
X162169027Y-99034817D01*
X162220368Y-99135579D01*
X162228272Y-99146458D01*
X162308242Y-99226428D01*
X162319121Y-99234332D01*
X162419888Y-99285675D01*
X162432675Y-99289830D01*
X162516265Y-99303069D01*
X162523014Y-99303600D01*
X164085849Y-99303600D01*
X164097532Y-99299348D01*
X164101100Y-99293168D01*
X164101100Y-99288348D01*
X164501100Y-99288348D01*
X164505352Y-99300031D01*
X164511532Y-99303599D01*
X166079184Y-99303599D01*
X166085936Y-99303068D01*
X166169520Y-99289830D01*
X166182317Y-99285673D01*
X166283079Y-99234332D01*
X166293958Y-99226428D01*
X166373928Y-99146458D01*
X166381832Y-99135579D01*
X166433175Y-99034812D01*
X166437330Y-99022025D01*
X166450569Y-98938435D01*
X166451100Y-98931686D01*
X166451100Y-98518851D01*
X166446848Y-98507168D01*
X166440668Y-98503600D01*
X164516351Y-98503600D01*
X164504668Y-98507852D01*
X164501100Y-98514032D01*
X164501100Y-99288348D01*
X164101100Y-99288348D01*
X164101100Y-98518851D01*
X164096848Y-98507168D01*
X164090668Y-98503600D01*
X162166352Y-98503600D01*
X162154669Y-98507852D01*
X162151101Y-98514032D01*
X162151101Y-98931684D01*
X160613684Y-98931684D01*
X160563217Y-98919568D01*
X160556528Y-98918508D01*
X160304393Y-98898665D01*
X160297607Y-98898665D01*
X160045472Y-98918508D01*
X160038783Y-98919568D01*
X159792848Y-98978611D01*
X159786409Y-98980703D01*
X159552736Y-99077494D01*
X159546700Y-99080569D01*
X159331053Y-99212718D01*
X159325575Y-99216697D01*
X159294815Y-99242969D01*
X159288692Y-99253791D01*
X158213084Y-99253791D01*
X158414369Y-99159930D01*
X158414370Y-99159929D01*
X158417787Y-99158336D01*
X158434751Y-99146458D01*
X158605082Y-99027191D01*
X158605086Y-99027188D01*
X158608176Y-99025024D01*
X158772524Y-98860676D01*
X158774688Y-98857586D01*
X158774691Y-98857582D01*
X158903672Y-98673378D01*
X158903674Y-98673375D01*
X158905836Y-98670287D01*
X158983564Y-98503600D01*
X159002467Y-98463062D01*
X159002468Y-98463060D01*
X159004062Y-98459641D01*
X159048803Y-98292664D01*
X167467951Y-98292664D01*
X167468423Y-98297478D01*
X167468423Y-98297482D01*
X167484323Y-98459641D01*
X167484990Y-98466442D01*
X167486515Y-98471025D01*
X167486515Y-98471027D01*
X167538579Y-98627535D01*
X167540106Y-98632125D01*
X167630559Y-98781481D01*
X167633917Y-98784958D01*
X167732191Y-98886723D01*
X167751854Y-98907085D01*
X167755898Y-98909731D01*
X167755900Y-98909733D01*
X167893920Y-99000052D01*
X167893923Y-99000053D01*
X167897961Y-99002696D01*
X167902488Y-99004380D01*
X167902489Y-99004380D01*
X167999442Y-99040436D01*
X168061621Y-99063560D01*
X168066416Y-99064200D01*
X168066417Y-99064200D01*
X168104888Y-99069333D01*
X168234697Y-99086653D01*
X168239511Y-99086215D01*
X168239514Y-99086215D01*
X168321643Y-99078740D01*
X168408589Y-99070828D01*
X168413189Y-99069333D01*
X168413191Y-99069333D01*
X168570051Y-99018366D01*
X168570054Y-99018365D01*
X168574654Y-99016870D01*
X168724637Y-98927462D01*
X168851085Y-98807047D01*
X168947713Y-98661611D01*
X168984623Y-98564445D01*
X169008002Y-98502901D01*
X169008003Y-98502898D01*
X169009719Y-98498380D01*
X169034020Y-98325469D01*
X169034325Y-98303600D01*
X169033305Y-98294501D01*
X169033099Y-98292664D01*
X170467951Y-98292664D01*
X170468423Y-98297478D01*
X170468423Y-98297482D01*
X170484323Y-98459641D01*
X170484990Y-98466442D01*
X170486515Y-98471025D01*
X170486515Y-98471027D01*
X170538579Y-98627535D01*
X170540106Y-98632125D01*
X170630559Y-98781481D01*
X170633917Y-98784958D01*
X170732191Y-98886723D01*
X170751854Y-98907085D01*
X170755898Y-98909731D01*
X170755900Y-98909733D01*
X170893920Y-99000052D01*
X170893923Y-99000053D01*
X170897961Y-99002696D01*
X170902488Y-99004380D01*
X170902489Y-99004380D01*
X170999442Y-99040436D01*
X171061621Y-99063560D01*
X171066416Y-99064200D01*
X171066417Y-99064200D01*
X171104888Y-99069333D01*
X171234697Y-99086653D01*
X171239511Y-99086215D01*
X171239514Y-99086215D01*
X171321643Y-99078740D01*
X171408589Y-99070828D01*
X171413189Y-99069333D01*
X171413191Y-99069333D01*
X171570051Y-99018366D01*
X171570054Y-99018365D01*
X171574654Y-99016870D01*
X171724637Y-98927462D01*
X171851085Y-98807047D01*
X171947713Y-98661611D01*
X171984623Y-98564445D01*
X172008002Y-98502901D01*
X172008003Y-98502898D01*
X172009719Y-98498380D01*
X172034020Y-98325469D01*
X172034325Y-98303600D01*
X172033305Y-98294501D01*
X172015400Y-98134884D01*
X172014861Y-98130078D01*
X171957438Y-97965180D01*
X171864908Y-97817102D01*
X171741872Y-97693203D01*
X171594443Y-97599642D01*
X171517890Y-97572383D01*
X171434509Y-97542692D01*
X171434506Y-97542691D01*
X171429950Y-97541069D01*
X171343259Y-97530731D01*
X171261375Y-97520967D01*
X171261373Y-97520967D01*
X171256568Y-97520394D01*
X171215169Y-97524745D01*
X171087724Y-97538140D01*
X171087720Y-97538141D01*
X171082914Y-97538646D01*
X171046022Y-97551205D01*
X170922195Y-97593359D01*
X170922193Y-97593360D01*
X170917619Y-97594917D01*
X170768899Y-97686410D01*
X170644144Y-97808579D01*
X170641528Y-97812639D01*
X170641525Y-97812642D01*
X170595396Y-97884221D01*
X170549556Y-97955351D01*
X170547901Y-97959898D01*
X170547900Y-97959900D01*
X170495598Y-98103600D01*
X170489836Y-98119431D01*
X170467951Y-98292664D01*
X169033099Y-98292664D01*
X169015400Y-98134884D01*
X169014861Y-98130078D01*
X168957438Y-97965180D01*
X168864908Y-97817102D01*
X168741872Y-97693203D01*
X168594443Y-97599642D01*
X168517890Y-97572383D01*
X168434509Y-97542692D01*
X168434506Y-97542691D01*
X168429950Y-97541069D01*
X168343259Y-97530731D01*
X168261375Y-97520967D01*
X168261373Y-97520967D01*
X168256568Y-97520394D01*
X168215169Y-97524745D01*
X168087724Y-97538140D01*
X168087720Y-97538141D01*
X168082914Y-97538646D01*
X168046022Y-97551205D01*
X167922195Y-97593359D01*
X167922193Y-97593360D01*
X167917619Y-97594917D01*
X167768899Y-97686410D01*
X167644144Y-97808579D01*
X167641528Y-97812639D01*
X167641525Y-97812642D01*
X167595396Y-97884221D01*
X167549556Y-97955351D01*
X167547901Y-97959898D01*
X167547900Y-97959900D01*
X167495598Y-98103600D01*
X167489836Y-98119431D01*
X167467951Y-98292664D01*
X159048803Y-98292664D01*
X159064217Y-98235138D01*
X159069895Y-98170245D01*
X159077060Y-98088349D01*
X162151100Y-98088349D01*
X162155352Y-98100032D01*
X162161532Y-98103600D01*
X164085849Y-98103600D01*
X164097532Y-98099348D01*
X164101100Y-98093168D01*
X164101100Y-98088349D01*
X164501100Y-98088349D01*
X164505352Y-98100032D01*
X164511532Y-98103600D01*
X166435848Y-98103600D01*
X166447531Y-98099348D01*
X166451099Y-98093168D01*
X166451099Y-97675516D01*
X166450568Y-97668764D01*
X166437330Y-97585180D01*
X166433173Y-97572383D01*
X166381832Y-97471621D01*
X166373928Y-97460742D01*
X166293958Y-97380772D01*
X166283079Y-97372868D01*
X166182312Y-97321525D01*
X166169525Y-97317370D01*
X166085935Y-97304131D01*
X166079186Y-97303600D01*
X164516351Y-97303600D01*
X164504668Y-97307852D01*
X164501100Y-97314032D01*
X164501100Y-98088349D01*
X164101100Y-98088349D01*
X164101100Y-97318852D01*
X164096848Y-97307169D01*
X164090668Y-97303601D01*
X162523016Y-97303601D01*
X162516264Y-97304132D01*
X162432680Y-97317370D01*
X162419883Y-97321527D01*
X162319121Y-97372868D01*
X162308242Y-97380772D01*
X162228272Y-97460742D01*
X162220368Y-97471621D01*
X162169025Y-97572388D01*
X162164870Y-97585175D01*
X162151631Y-97668765D01*
X162151100Y-97675514D01*
X162151100Y-98088349D01*
X159077060Y-98088349D01*
X159084145Y-98007360D01*
X159084474Y-98003600D01*
X159068516Y-97821201D01*
X159064546Y-97775820D01*
X159064546Y-97775818D01*
X159064217Y-97772062D01*
X159004062Y-97547559D01*
X159001793Y-97542692D01*
X158907430Y-97340331D01*
X158907429Y-97340330D01*
X158905836Y-97336913D01*
X158895063Y-97321527D01*
X158774691Y-97149618D01*
X158774688Y-97149614D01*
X158772524Y-97146524D01*
X158608176Y-96982176D01*
X158605086Y-96980012D01*
X158605082Y-96980009D01*
X158420878Y-96851028D01*
X158420875Y-96851026D01*
X158417787Y-96848864D01*
X158292632Y-96790503D01*
X158216086Y-96754809D01*
X159288747Y-96754809D01*
X159290221Y-96760308D01*
X159325575Y-96790503D01*
X159331053Y-96794482D01*
X159546700Y-96926631D01*
X159552736Y-96929706D01*
X159786409Y-97026497D01*
X159792848Y-97028589D01*
X160038783Y-97087632D01*
X160045472Y-97088692D01*
X160297607Y-97108535D01*
X160304393Y-97108535D01*
X160556528Y-97088692D01*
X160563217Y-97087632D01*
X160809152Y-97028589D01*
X160815591Y-97026497D01*
X161049264Y-96929706D01*
X161055300Y-96926631D01*
X161270947Y-96794482D01*
X161276425Y-96790503D01*
X161307185Y-96764231D01*
X161313308Y-96753409D01*
X161312271Y-96747814D01*
X160311785Y-95747328D01*
X160300517Y-95742073D01*
X160293622Y-95743921D01*
X159294002Y-96743541D01*
X159288747Y-96754809D01*
X158216086Y-96754809D01*
X158210562Y-96752233D01*
X158210560Y-96752232D01*
X158207141Y-96750638D01*
X158180655Y-96743541D01*
X158090935Y-96719501D01*
X157982638Y-96690483D01*
X157978882Y-96690154D01*
X157978880Y-96690154D01*
X157754860Y-96670555D01*
X157751100Y-96670226D01*
X157747340Y-96670555D01*
X157523320Y-96690154D01*
X157523318Y-96690154D01*
X157519562Y-96690483D01*
X157411265Y-96719501D01*
X157321546Y-96743541D01*
X157295059Y-96750638D01*
X157291640Y-96752232D01*
X157291638Y-96752233D01*
X157209568Y-96790503D01*
X157084413Y-96848864D01*
X157081325Y-96851026D01*
X157081322Y-96851028D01*
X156897118Y-96980009D01*
X156897114Y-96980012D01*
X156894024Y-96982176D01*
X156729676Y-97146524D01*
X156727512Y-97149614D01*
X156727509Y-97149618D01*
X156607137Y-97321527D01*
X156596364Y-97336913D01*
X156594771Y-97340330D01*
X156594770Y-97340331D01*
X156500408Y-97542692D01*
X156498138Y-97547559D01*
X156437983Y-97772062D01*
X156437654Y-97775818D01*
X156437654Y-97775820D01*
X156433684Y-97821201D01*
X156417726Y-98003600D01*
X148369720Y-98003600D01*
X148365953Y-97999840D01*
X148341707Y-97975636D01*
X148336054Y-97969993D01*
X148241232Y-97928073D01*
X148217449Y-97925300D01*
X147880142Y-97925300D01*
X147534752Y-97925301D01*
X147532217Y-97925603D01*
X147532209Y-97925603D01*
X147524330Y-97926541D01*
X147510487Y-97928187D01*
X147504556Y-97930821D01*
X147504554Y-97930822D01*
X147423040Y-97967029D01*
X147423038Y-97967031D01*
X147415738Y-97970273D01*
X147410093Y-97975928D01*
X147351321Y-98034803D01*
X147342493Y-98043646D01*
X147339263Y-98050952D01*
X147330194Y-98071466D01*
X147289204Y-98114138D01*
X147230375Y-98120477D01*
X147181234Y-98087520D01*
X147172028Y-98071607D01*
X147162670Y-98050539D01*
X147159427Y-98043238D01*
X147115953Y-97999840D01*
X147091707Y-97975636D01*
X147086054Y-97969993D01*
X146991232Y-97928073D01*
X146967449Y-97925300D01*
X146948462Y-97925300D01*
X146541397Y-97925301D01*
X146485796Y-97905064D01*
X146455637Y-97850092D01*
X146440255Y-97733252D01*
X146440255Y-97733250D01*
X146439515Y-97727633D01*
X146381244Y-97586955D01*
X146370063Y-97572383D01*
X146292001Y-97470652D01*
X146288548Y-97466152D01*
X146281498Y-97460742D01*
X146172244Y-97376908D01*
X146172243Y-97376907D01*
X146167745Y-97373456D01*
X146027067Y-97315185D01*
X146021448Y-97314445D01*
X146021447Y-97314445D01*
X145881721Y-97296050D01*
X145876100Y-97295310D01*
X145870479Y-97296050D01*
X145730753Y-97314445D01*
X145730752Y-97314445D01*
X145725133Y-97315185D01*
X145584455Y-97373456D01*
X145579957Y-97376907D01*
X145579956Y-97376908D01*
X145470702Y-97460742D01*
X145463652Y-97466152D01*
X145460199Y-97470652D01*
X145382138Y-97572383D01*
X145370956Y-97586955D01*
X145312685Y-97727633D01*
X145292810Y-97878600D01*
X127884738Y-97878600D01*
X127861804Y-96754809D01*
X154188947Y-96754809D01*
X154190421Y-96760308D01*
X154225775Y-96790503D01*
X154231253Y-96794482D01*
X154446900Y-96926631D01*
X154452936Y-96929706D01*
X154686609Y-97026497D01*
X154693048Y-97028589D01*
X154938983Y-97087632D01*
X154945672Y-97088692D01*
X155197807Y-97108535D01*
X155204593Y-97108535D01*
X155456728Y-97088692D01*
X155463417Y-97087632D01*
X155709352Y-97028589D01*
X155715791Y-97026497D01*
X155949464Y-96929706D01*
X155955500Y-96926631D01*
X156171147Y-96794482D01*
X156176625Y-96790503D01*
X156207385Y-96764231D01*
X156213508Y-96753409D01*
X156212471Y-96747814D01*
X155211985Y-95747328D01*
X155200717Y-95742073D01*
X155193822Y-95743921D01*
X154194202Y-96743541D01*
X154188947Y-96754809D01*
X127861804Y-96754809D01*
X127831732Y-95281292D01*
X127850830Y-95225289D01*
X127857049Y-95218362D01*
X128446811Y-94628600D01*
X135167810Y-94628600D01*
X135168550Y-94634221D01*
X135177926Y-94705436D01*
X135187685Y-94779567D01*
X135245956Y-94920245D01*
X135338652Y-95041048D01*
X135343152Y-95044501D01*
X135431401Y-95112217D01*
X135459455Y-95133744D01*
X135600133Y-95192015D01*
X135605752Y-95192755D01*
X135605753Y-95192755D01*
X135745479Y-95211150D01*
X135751100Y-95211890D01*
X135756721Y-95211150D01*
X135841668Y-95199967D01*
X135899435Y-95212774D01*
X135935455Y-95259716D01*
X135932873Y-95318830D01*
X135914177Y-95346837D01*
X135842493Y-95418646D01*
X135800573Y-95513468D01*
X135797800Y-95537251D01*
X135797801Y-96219948D01*
X135800687Y-96244213D01*
X135803321Y-96250144D01*
X135803322Y-96250146D01*
X135839529Y-96331660D01*
X135839530Y-96331661D01*
X135842773Y-96338962D01*
X135848428Y-96344607D01*
X135910201Y-96406272D01*
X135916146Y-96412207D01*
X136010968Y-96454127D01*
X136034751Y-96456900D01*
X136372058Y-96456900D01*
X136717448Y-96456899D01*
X136719983Y-96456597D01*
X136719991Y-96456597D01*
X136727870Y-96455659D01*
X136741713Y-96454013D01*
X136747644Y-96451379D01*
X136747646Y-96451378D01*
X136829160Y-96415171D01*
X136829162Y-96415169D01*
X136836462Y-96411927D01*
X136909707Y-96338554D01*
X136922006Y-96310734D01*
X136962996Y-96268062D01*
X137021825Y-96261723D01*
X137070966Y-96294680D01*
X137080172Y-96310593D01*
X137092773Y-96338962D01*
X137098428Y-96344607D01*
X137160201Y-96406272D01*
X137166146Y-96412207D01*
X137260968Y-96454127D01*
X137284751Y-96456900D01*
X137622058Y-96456900D01*
X137967448Y-96456899D01*
X137969983Y-96456597D01*
X137969991Y-96456597D01*
X137977870Y-96455659D01*
X137991713Y-96454013D01*
X137997644Y-96451379D01*
X137997646Y-96451378D01*
X138024085Y-96439634D01*
X138083114Y-96435558D01*
X138092287Y-96438765D01*
X138100133Y-96442015D01*
X138105752Y-96442755D01*
X138105753Y-96442755D01*
X138245479Y-96461150D01*
X138251100Y-96461890D01*
X138256721Y-96461150D01*
X138396447Y-96442755D01*
X138396448Y-96442755D01*
X138402067Y-96442015D01*
X138542745Y-96383744D01*
X138601638Y-96338554D01*
X138659048Y-96294501D01*
X138663548Y-96291048D01*
X138720073Y-96217384D01*
X138752792Y-96174744D01*
X138752793Y-96174743D01*
X138756244Y-96170245D01*
X138814515Y-96029567D01*
X138834390Y-95878600D01*
X138816416Y-95742073D01*
X138815255Y-95733253D01*
X138815255Y-95733252D01*
X138814515Y-95727633D01*
X138756244Y-95586955D01*
X138723191Y-95543879D01*
X138667001Y-95470652D01*
X138663548Y-95466152D01*
X138651742Y-95457093D01*
X153546365Y-95457093D01*
X153566208Y-95709228D01*
X153567268Y-95715917D01*
X153626311Y-95961852D01*
X153628403Y-95968291D01*
X153725194Y-96201964D01*
X153728269Y-96208000D01*
X153860418Y-96423647D01*
X153864397Y-96429125D01*
X153890669Y-96459885D01*
X153901491Y-96466008D01*
X153907086Y-96464971D01*
X154907572Y-95464485D01*
X154912376Y-95454183D01*
X155489573Y-95454183D01*
X155491421Y-95461078D01*
X156491041Y-96460698D01*
X156502309Y-96465953D01*
X156507808Y-96464479D01*
X156538003Y-96429125D01*
X156541982Y-96423647D01*
X156674131Y-96208000D01*
X156677206Y-96201964D01*
X156773997Y-95968291D01*
X156776089Y-95961852D01*
X156835132Y-95715917D01*
X156836192Y-95709228D01*
X156856035Y-95457093D01*
X158646165Y-95457093D01*
X158666008Y-95709228D01*
X158667068Y-95715917D01*
X158726111Y-95961852D01*
X158728203Y-95968291D01*
X158824994Y-96201964D01*
X158828069Y-96208000D01*
X158960218Y-96423647D01*
X158964197Y-96429125D01*
X158990469Y-96459885D01*
X159001291Y-96466008D01*
X159006886Y-96464971D01*
X160007372Y-95464485D01*
X160012176Y-95454183D01*
X160589373Y-95454183D01*
X160591221Y-95461078D01*
X161590841Y-96460698D01*
X161602109Y-96465953D01*
X161607608Y-96464479D01*
X161637803Y-96429125D01*
X161641782Y-96423647D01*
X161773931Y-96208000D01*
X161777006Y-96201964D01*
X161873797Y-95968291D01*
X161875889Y-95961852D01*
X161934932Y-95715917D01*
X161935992Y-95709228D01*
X161937817Y-95686039D01*
X162372800Y-95686039D01*
X162372801Y-96921160D01*
X162383145Y-96973169D01*
X162422553Y-97032147D01*
X162481531Y-97071555D01*
X162533539Y-97081900D01*
X164300683Y-97081900D01*
X166068660Y-97081899D01*
X166120669Y-97071555D01*
X166179647Y-97032147D01*
X166219055Y-96973169D01*
X166223724Y-96949696D01*
X166254419Y-96899111D01*
X166297271Y-96880812D01*
X166373451Y-96870782D01*
X166396447Y-96867755D01*
X166396448Y-96867755D01*
X166402067Y-96867015D01*
X166542745Y-96808744D01*
X166561332Y-96794482D01*
X166659048Y-96719501D01*
X166663548Y-96716048D01*
X166756244Y-96595245D01*
X166814515Y-96454567D01*
X166816168Y-96442015D01*
X166833650Y-96309221D01*
X166834390Y-96303600D01*
X166821804Y-96208000D01*
X166815255Y-96158253D01*
X166815255Y-96158252D01*
X166814515Y-96152633D01*
X166756244Y-96011955D01*
X166717799Y-95961852D01*
X166667001Y-95895652D01*
X166663548Y-95891152D01*
X166542745Y-95798456D01*
X166402067Y-95740185D01*
X166396448Y-95739445D01*
X166396447Y-95739445D01*
X166297270Y-95726388D01*
X166244786Y-95699066D01*
X166223723Y-95657502D01*
X166220717Y-95642386D01*
X166220716Y-95642385D01*
X166219055Y-95634031D01*
X166179647Y-95575053D01*
X166120669Y-95535645D01*
X166068661Y-95525300D01*
X164301517Y-95525300D01*
X162533540Y-95525301D01*
X162481531Y-95535645D01*
X162422553Y-95575053D01*
X162383145Y-95634031D01*
X162372800Y-95686039D01*
X161937817Y-95686039D01*
X161955835Y-95457093D01*
X161955835Y-95450307D01*
X161935992Y-95198172D01*
X161934932Y-95191483D01*
X161875889Y-94945548D01*
X161873797Y-94939109D01*
X161777006Y-94705436D01*
X161773931Y-94699400D01*
X161641782Y-94483753D01*
X161637803Y-94478275D01*
X161611531Y-94447515D01*
X161600709Y-94441392D01*
X161595114Y-94442429D01*
X160594628Y-95442915D01*
X160589373Y-95454183D01*
X160012176Y-95454183D01*
X160012627Y-95453217D01*
X160010779Y-95446322D01*
X159011159Y-94446702D01*
X158999891Y-94441447D01*
X158994392Y-94442921D01*
X158964197Y-94478275D01*
X158960218Y-94483753D01*
X158828069Y-94699400D01*
X158824994Y-94705436D01*
X158728203Y-94939109D01*
X158726111Y-94945548D01*
X158667068Y-95191483D01*
X158666008Y-95198172D01*
X158646165Y-95450307D01*
X158646165Y-95457093D01*
X156856035Y-95457093D01*
X156856035Y-95450307D01*
X156836192Y-95198172D01*
X156835132Y-95191483D01*
X156776089Y-94945548D01*
X156773997Y-94939109D01*
X156677206Y-94705436D01*
X156674131Y-94699400D01*
X156541982Y-94483753D01*
X156538003Y-94478275D01*
X156511731Y-94447515D01*
X156500909Y-94441392D01*
X156495314Y-94442429D01*
X155494828Y-95442915D01*
X155489573Y-95454183D01*
X154912376Y-95454183D01*
X154912827Y-95453217D01*
X154910979Y-95446322D01*
X153911359Y-94446702D01*
X153900091Y-94441447D01*
X153894592Y-94442921D01*
X153864397Y-94478275D01*
X153860418Y-94483753D01*
X153728269Y-94699400D01*
X153725194Y-94705436D01*
X153628403Y-94939109D01*
X153626311Y-94945548D01*
X153567268Y-95191483D01*
X153566208Y-95198172D01*
X153546365Y-95450307D01*
X153546365Y-95457093D01*
X138651742Y-95457093D01*
X138611156Y-95425950D01*
X138547244Y-95376908D01*
X138547243Y-95376907D01*
X138542745Y-95373456D01*
X138402067Y-95315185D01*
X138396448Y-95314445D01*
X138396447Y-95314445D01*
X138256721Y-95296050D01*
X138251100Y-95295310D01*
X138245479Y-95296050D01*
X138105753Y-95314445D01*
X138105752Y-95314445D01*
X138100133Y-95315185D01*
X138092263Y-95318445D01*
X138090546Y-95318520D01*
X138089419Y-95318822D01*
X138089352Y-95318572D01*
X138033151Y-95321025D01*
X138024186Y-95317642D01*
X138023535Y-95317354D01*
X137991232Y-95303073D01*
X137984772Y-95302320D01*
X137984769Y-95302319D01*
X137969936Y-95300590D01*
X137967449Y-95300300D01*
X137630142Y-95300300D01*
X137284752Y-95300301D01*
X137282217Y-95300603D01*
X137282209Y-95300603D01*
X137274330Y-95301541D01*
X137260487Y-95303187D01*
X137254556Y-95305821D01*
X137254554Y-95305822D01*
X137173040Y-95342029D01*
X137173038Y-95342031D01*
X137165738Y-95345273D01*
X137092493Y-95418646D01*
X137089264Y-95425950D01*
X137089263Y-95425952D01*
X137080194Y-95446466D01*
X137039204Y-95489138D01*
X136980375Y-95495477D01*
X136931234Y-95462520D01*
X136922028Y-95446607D01*
X136912670Y-95425539D01*
X136909427Y-95418238D01*
X136846774Y-95355694D01*
X136841707Y-95350636D01*
X136836054Y-95344993D01*
X136741232Y-95303073D01*
X136741465Y-95302546D01*
X136696826Y-95270997D01*
X136681400Y-95221694D01*
X136681400Y-94684322D01*
X136682781Y-94674584D01*
X136682205Y-94674527D01*
X136682984Y-94666580D01*
X136685206Y-94658908D01*
X136681723Y-94618694D01*
X136681400Y-94611230D01*
X136681400Y-94600207D01*
X136679783Y-94591522D01*
X136678646Y-94583166D01*
X136676081Y-94553555D01*
X136675392Y-94545599D01*
X136671886Y-94538426D01*
X136669945Y-94531427D01*
X136667327Y-94524642D01*
X136665864Y-94516789D01*
X136646077Y-94484688D01*
X136642001Y-94477289D01*
X136639610Y-94472397D01*
X136625445Y-94443420D01*
X136619590Y-94437989D01*
X136615255Y-94432152D01*
X136610375Y-94426770D01*
X136606185Y-94419972D01*
X136576177Y-94397153D01*
X136569708Y-94391716D01*
X136547917Y-94371502D01*
X136547916Y-94371501D01*
X136542063Y-94366072D01*
X136534645Y-94363112D01*
X136528506Y-94359232D01*
X136522013Y-94355966D01*
X136515653Y-94351130D01*
X136479438Y-94340642D01*
X136471448Y-94337899D01*
X136463723Y-94334817D01*
X136436427Y-94323927D01*
X136430032Y-94323300D01*
X136427947Y-94323300D01*
X136422045Y-94322316D01*
X136422027Y-94322495D01*
X136414080Y-94321716D01*
X136406408Y-94319494D01*
X136398451Y-94320183D01*
X136398450Y-94320183D01*
X136366194Y-94322977D01*
X136358730Y-94323300D01*
X136288423Y-94323300D01*
X136232822Y-94303063D01*
X136219798Y-94289458D01*
X136167001Y-94220652D01*
X136163548Y-94216152D01*
X136082539Y-94153991D01*
X154188892Y-94153991D01*
X154189929Y-94159586D01*
X155190415Y-95160072D01*
X155201683Y-95165327D01*
X155208578Y-95163479D01*
X156208198Y-94163859D01*
X156212800Y-94153991D01*
X159288692Y-94153991D01*
X159289729Y-94159586D01*
X160290215Y-95160072D01*
X160301483Y-95165327D01*
X160308378Y-95163479D01*
X161240173Y-94231684D01*
X169201101Y-94231684D01*
X169201632Y-94238436D01*
X169214870Y-94322020D01*
X169219027Y-94334817D01*
X169270368Y-94435579D01*
X169278272Y-94446458D01*
X169358242Y-94526428D01*
X169369121Y-94534332D01*
X169469888Y-94585675D01*
X169482675Y-94589830D01*
X169566265Y-94603069D01*
X169573014Y-94603600D01*
X171035849Y-94603600D01*
X171047532Y-94599348D01*
X171051100Y-94593168D01*
X171051100Y-93468851D01*
X171046848Y-93457168D01*
X171040668Y-93453600D01*
X169216352Y-93453600D01*
X169204669Y-93457852D01*
X169201101Y-93464032D01*
X169201101Y-94231684D01*
X161240173Y-94231684D01*
X161307998Y-94163859D01*
X161313253Y-94152591D01*
X161311779Y-94147092D01*
X161276425Y-94116897D01*
X161270947Y-94112918D01*
X161055300Y-93980769D01*
X161049264Y-93977694D01*
X160815591Y-93880903D01*
X160809152Y-93878811D01*
X160563217Y-93819768D01*
X160556528Y-93818708D01*
X160304393Y-93798865D01*
X160297607Y-93798865D01*
X160045472Y-93818708D01*
X160038783Y-93819768D01*
X159792848Y-93878811D01*
X159786409Y-93880903D01*
X159552736Y-93977694D01*
X159546700Y-93980769D01*
X159331053Y-94112918D01*
X159325575Y-94116897D01*
X159294815Y-94143169D01*
X159288692Y-94153991D01*
X156212800Y-94153991D01*
X156213453Y-94152591D01*
X156211979Y-94147092D01*
X156176625Y-94116897D01*
X156171147Y-94112918D01*
X155955500Y-93980769D01*
X155949464Y-93977694D01*
X155715791Y-93880903D01*
X155709352Y-93878811D01*
X155463417Y-93819768D01*
X155456728Y-93818708D01*
X155204593Y-93798865D01*
X155197807Y-93798865D01*
X154945672Y-93818708D01*
X154938983Y-93819768D01*
X154693048Y-93878811D01*
X154686609Y-93880903D01*
X154452936Y-93977694D01*
X154446900Y-93980769D01*
X154231253Y-94112918D01*
X154225775Y-94116897D01*
X154195015Y-94143169D01*
X154188892Y-94153991D01*
X136082539Y-94153991D01*
X136073548Y-94147092D01*
X136047244Y-94126908D01*
X136047243Y-94126907D01*
X136042745Y-94123456D01*
X135902067Y-94065185D01*
X135896448Y-94064445D01*
X135896447Y-94064445D01*
X135756721Y-94046050D01*
X135751100Y-94045310D01*
X135745479Y-94046050D01*
X135605753Y-94064445D01*
X135605752Y-94064445D01*
X135600133Y-94065185D01*
X135459455Y-94123456D01*
X135454957Y-94126907D01*
X135454956Y-94126908D01*
X135428652Y-94147092D01*
X135338652Y-94216152D01*
X135335199Y-94220652D01*
X135257052Y-94322495D01*
X135245956Y-94336955D01*
X135187685Y-94477633D01*
X135186945Y-94483252D01*
X135186945Y-94483253D01*
X135178737Y-94545599D01*
X135167810Y-94628600D01*
X128446811Y-94628600D01*
X130725736Y-92349674D01*
X130736526Y-92338884D01*
X130746475Y-92334763D01*
X130749938Y-92326402D01*
X130851747Y-92239451D01*
X130862715Y-92231482D01*
X130887415Y-92216345D01*
X130932609Y-92203600D01*
X169114600Y-92203600D01*
X169170201Y-92223837D01*
G37*
%TD.AperFunction*%
%TD*%
D20*
X135626100Y-99878600D03*
X172001100Y-93753600D03*
X170501100Y-103253600D03*
X172001100Y-102253600D03*
X145251100Y-101878600D03*
X170501100Y-93753600D03*
X172001100Y-103253600D03*
X131251100Y-97503600D03*
X170501100Y-92753600D03*
X150251100Y-101878600D03*
X172001100Y-92753600D03*
X154001100Y-94003600D03*
X170501100Y-102253600D03*
X131251100Y-102503600D03*
X153001100Y-97128600D03*
X144626100Y-102378600D03*
X151126100Y-101628600D03*
X142376100Y-97378600D03*
X146751100Y-93503600D03*
X142126100Y-93378600D03*
X141501100Y-98003600D03*
X146251100Y-102878600D03*
X148126100Y-102878600D03*
X166251100Y-96303600D03*
X167251100Y-100303600D03*
X138251100Y-101128600D03*
X145876100Y-97878600D03*
X148501100Y-99128600D03*
X135751100Y-94628600D03*
X138251100Y-95878600D03*
X157751100Y-98003600D03*
X155201200Y-95453700D03*
X160301000Y-95453700D03*
X160301000Y-100553500D03*
X155201200Y-100553500D03*
X171251100Y-98303600D03*
X168251100Y-98303600D03*
M02*
