M48
; DRILL file {KiCad 6.0.0-rc1-unknown-fbdb2bd91f~144~ubuntu20.04.1} date Rab 08 Des 2021 11:49:30 
; FORMAT={-:-/ absolute / inch / decimal}
; #@! TF.CreationDate,2021-12-08T11:49:30+07:00
; #@! TF.GenerationSoftware,Kicad,Pcbnew,6.0.0-rc1-unknown-fbdb2bd91f~144~ubuntu20.04.1
; #@! TF.FileFunction,Plated,1,2,PTH
FMAT,2
INCH
; #@! TA.AperFunction,Plated,PTH,ViaDrill
T1C0.0157
; #@! TA.AperFunction,Plated,PTH,ComponentDrill
T2C0.0591
; #@! TA.AperFunction,Plated,PTH,ComponentDrill
T3C0.0669
%
G90
G05
T1
X5.1674Y-3.8387
X5.1674Y-4.0356
X5.3396Y-3.9322
X5.3445Y-3.7255
X5.443Y-3.7747
X5.443Y-3.9814
X5.5709Y-3.8584
X5.5955Y-3.6763
X5.6054Y-3.8338
X5.6939Y-4.0307
X5.7185Y-4.011
X5.7432Y-3.8535
X5.7579Y-4.0503
X5.7776Y-3.6812
X5.8317Y-4.0503
X5.8465Y-3.9027
X5.9154Y-4.011
X5.9498Y-4.0011
X6.0237Y-3.824
X6.063Y-3.7009
X6.5453Y-3.7915
X6.5847Y-3.949
X6.7126Y-3.6517
X6.7126Y-3.6911
X6.7126Y-4.0257
X6.7126Y-4.0651
X6.7717Y-3.6517
X6.7717Y-3.6911
X6.7717Y-4.0257
X6.7717Y-4.0651
T2
X6.2107Y-3.8584
T3
X6.1103Y-3.758
X6.1103Y-3.9588
X6.3111Y-3.758
X6.3111Y-3.9588
T0
M30
